<svg xmlns="http://www.w3.org/2000/svg" viewBox="0 0 30 31" fill="none"><path d="M14.327 4.297 L14.327 8.581 L7.170 11.721 L0.000 14.861 L0.000 18.522 L0.000 22.183 L1.716 23.174 C8.136 26.937 14.746 30.815 14.848 30.878 C14.962 30.942 15.712 30.522 22.463 26.581 L29.963 22.221 L29.988 18.522 C30.014 15.801 30.001 14.822 29.950 14.822 C29.912 14.822 26.658 13.411 22.730 11.683 L15.573 8.543 L15.560 4.271 L15.547 0.000 L14.937 0.000 L14.327 0.000 L14.327 4.297 Z M14.327 12.763 L14.327 15.712 L13.030 14.416 L11.733 13.119 L11.339 13.513 C11.123 13.729 10.958 13.920 10.958 13.945 C10.971 13.971 11.873 14.899 12.979 16.017 L14.988 18.039 L17.022 16.005 L19.043 13.971 L18.649 13.564 L18.255 13.157 L16.895 14.505 L15.547 15.852 L15.547 12.839 C15.547 10.335 15.560 9.839 15.636 9.865 C15.903 9.979 27.382 15.013 27.408 15.039 C27.458 15.089 15.140 22.030 15.013 22.030 C14.950 22.030 12.127 20.467 8.721 18.560 C4.373 16.106 2.568 15.064 2.631 15.026 C2.682 14.988 14.149 9.928 14.327 9.852 C14.327 9.814 14.327 11.136 14.327 12.763 Z M7.843 19.348 C11.428 21.369 14.365 23.022 14.365 23.022 C14.403 23.047 14.454 29.289 14.416 29.289 C14.390 29.289 11.390 27.547 7.754 25.412 L1.144 21.535 L1.144 18.611 C1.144 16.030 1.157 15.687 1.233 15.687 C1.297 15.674 4.259 17.327 7.843 19.348 Z M28.844 18.623 L28.844 21.573 L22.246 25.412 L15.649 29.251 L15.611 28.742 C15.585 28.463 15.573 27.064 15.560 25.653 L15.560 23.073 L21.166 19.920 C24.255 18.179 27.204 16.513 27.713 16.221 C28.221 15.928 28.704 15.687 28.755 15.687 C28.831 15.674 28.844 15.865 28.844 18.623 Z" fill="#62560E"/></svg>