<svg width="13" height="31" viewBox="0 0 13 31" fill="none" xmlns="http://www.w3.org/2000/svg">
<path d="M2.88889 5.7798V23.4234C2.88889 23.4234 2.62022 27.1263 6.55922 27.1263C10.1111 27.1263 10.1111 23.4234 10.1111 23.4234V4.8672C10.1111 4.8672 10.1111 0 5.05556 0C0 0 0 4.8672 0 4.8672V23.4234C0 23.4234 0 30.42 6.5 30.42C13 30.42 13 23.4234 13 23.4234V4.8672C13 4.1067 11.5556 4.1067 11.5556 4.8672V23.4234C11.5556 23.4234 12.0813 29.0373 6.5 29.0373C1.44444 29.0373 1.44444 23.4234 1.44444 23.4234V4.8672C1.44444 4.8672 1.44444 1.38273 5.05556 1.38273C8.66667 1.38273 8.66667 4.8672 8.66667 4.8672V23.4234C8.66667 23.4234 8.66667 25.6054 6.55922 25.6054C4.45182 25.6054 4.33333 23.4234 4.33333 23.4234V5.7798C4.33333 5.0193 2.88889 5.0193 2.88889 5.7798Z" fill="#86868A"/>
</svg>
