<svg xmlns="http://www.w3.org/2000/svg" viewBox="0 0 29 27" fill="none"><path d="M3.786 0.087 C2.115 0.416 0.858 1.270 0.273 2.478 C-0.106 3.247 -0.106 3.247 0.370 3.369 C1.554 3.710 2.676 4.589 3.091 5.516 L3.298 5.980 L3.786 5.955 C5.299 5.870 6.104 5.345 6.714 4.064 C7.007 3.454 7.117 3.296 7.117 3.491 C7.117 3.625 7.434 3.979 7.934 4.418 L8.410 4.845 L8.544 5.406 C8.935 7.114 8.862 9.127 8.337 10.701 C8.142 11.287 7.739 12.116 7.410 12.592 C6.702 13.642 5.519 14.178 4.238 14.044 C3.994 14.020 3.969 14.032 3.859 14.203 L3.737 14.398 L3.969 14.459 C4.311 14.557 5.226 14.532 5.641 14.435 C6.141 14.313 6.800 13.971 7.141 13.666 L7.434 13.410 L8.691 13.373 C9.874 13.349 9.984 13.337 10.362 13.190 C11.192 12.861 11.912 12.263 12.449 11.433 C12.619 11.177 12.754 10.945 12.754 10.921 C12.754 10.896 12.461 10.689 12.119 10.457 C11.082 9.786 10.338 8.908 9.947 7.932 C9.789 7.529 9.789 7.492 9.752 5.748 C9.703 3.710 9.655 3.405 9.228 2.515 C8.740 1.490 7.837 0.746 6.556 0.306 C5.629 0.001 4.640 -0.084 3.786 0.087 Z" fill="#62560E" transform="translate(13.358 0.000)"/><path d="M4.752 0.057 C4.215 0.130 3.386 0.411 2.898 0.679 C2.300 1.009 1.531 1.802 1.214 2.424 C0.824 3.180 0.653 3.839 0.616 4.766 C0.604 5.194 0.604 5.804 0.628 6.121 L0.677 6.694 L0.433 6.914 C0.092 7.207 -0.030 7.585 0.006 8.207 C0.055 8.976 0.458 9.683 1.373 10.647 C1.812 11.111 1.910 11.245 1.995 11.550 C2.056 11.745 2.239 12.184 2.410 12.514 C2.666 13.014 2.812 13.209 3.264 13.661 C3.849 14.246 4.337 14.539 5.033 14.710 C5.496 14.820 6.363 14.807 6.802 14.685 C8.095 14.307 9.132 13.221 9.657 11.696 C9.803 11.294 9.889 11.160 10.255 10.757 C11.377 9.573 11.828 8.610 11.694 7.756 C11.633 7.365 11.511 7.146 11.243 6.902 L11.023 6.706 L11.096 6.084 C11.145 5.718 11.157 5.145 11.133 4.693 C11.096 3.827 10.974 3.376 10.645 2.875 C10.535 2.717 10.425 2.485 10.401 2.351 C10.291 1.753 9.669 0.997 9.010 0.643 C8.571 0.399 7.851 0.179 7.205 0.082 C6.582 -0.016 5.362 -0.028 4.752 0.057 Z M9.291 2.863 C9.669 3.046 10.169 3.559 10.486 4.059 C10.718 4.449 10.730 4.461 10.743 5.096 C10.755 5.572 10.730 5.901 10.633 6.414 C10.560 6.792 10.474 7.194 10.450 7.329 L10.401 7.573 L10.511 7.426 C10.767 7.085 10.804 7.060 10.938 7.133 C11.133 7.231 11.292 7.646 11.292 8.061 C11.292 8.732 10.901 9.427 9.998 10.379 C9.523 10.879 9.437 10.989 9.352 11.306 C9.291 11.501 9.120 11.928 8.974 12.233 C8.742 12.709 8.608 12.892 8.181 13.319 C7.424 14.088 6.839 14.344 5.862 14.344 C4.935 14.344 4.301 14.063 3.581 13.356 C3.044 12.819 2.727 12.270 2.434 11.428 C2.288 11.001 2.227 10.903 1.812 10.464 C1.214 9.842 0.897 9.427 0.653 8.902 C0.482 8.536 0.458 8.414 0.458 8.036 C0.458 7.499 0.628 7.133 0.885 7.133 C0.982 7.133 1.055 7.194 1.141 7.353 C1.287 7.634 1.287 7.548 1.177 6.889 C1.129 6.609 1.092 6.206 1.092 6.011 C1.092 5.645 1.092 5.645 1.287 5.608 C1.861 5.486 2.324 5.047 2.507 4.449 L2.605 4.132 L3.008 4.339 C3.849 4.766 4.777 4.974 5.875 4.974 C6.692 4.974 7.095 4.876 7.473 4.535 C7.815 4.230 7.949 4.010 8.156 3.388 C8.425 2.607 8.388 2.656 8.705 2.692 C8.864 2.717 9.120 2.790 9.291 2.863 Z" fill="#62560E" transform="translate(5.401 3.971)"/><path d="M0.708 0.077 C0.403 0.187 0.110 0.407 0.049 0.578 C-0.036 0.822 -0.012 0.870 0.135 0.724 C0.318 0.541 0.647 0.419 1.050 0.370 C1.330 0.334 1.440 0.358 1.806 0.492 C2.160 0.639 2.245 0.651 2.379 0.590 C2.587 0.504 2.575 0.297 2.367 0.199 C1.940 0.004 1.111 -0.069 0.708 0.077 Z" fill="#62560E" transform="translate(7.749 10.990)"/><path d="M0.639 0.059 C0.053 0.193 -0.179 0.449 0.151 0.608 C0.273 0.656 0.358 0.656 0.627 0.547 C0.810 0.473 1.066 0.400 1.200 0.376 C1.517 0.339 2.176 0.510 2.371 0.693 C2.505 0.815 2.518 0.815 2.518 0.717 C2.518 0.534 2.274 0.290 1.956 0.132 C1.627 -0.015 1.090 -0.039 0.639 0.059 Z" fill="#62560E" transform="translate(12.247 10.985)"/><path d="M0.647 0.087 C0.268 0.222 0.012 0.478 0.000 0.710 C0.000 0.893 0.085 0.880 0.207 0.685 C0.427 0.344 0.756 0.185 0.683 0.453 C0.634 0.661 0.744 0.893 0.939 0.954 C1.159 1.027 1.342 0.954 1.476 0.758 C1.549 0.636 1.562 0.575 1.513 0.453 C1.403 0.197 1.610 0.270 1.891 0.575 C2.172 0.880 2.220 0.905 2.220 0.722 C2.220 0.649 2.123 0.490 1.989 0.368 C1.647 0.014 1.135 -0.096 0.647 0.087 Z" fill="#62560E" transform="translate(8.103 12.005)"/><path d="M0.623 0.079 C0.355 0.176 -0.023 0.542 0.001 0.689 C0.026 0.847 0.135 0.835 0.257 0.640 C0.318 0.530 0.465 0.396 0.562 0.335 L0.758 0.225 L0.733 0.481 C0.709 0.689 0.733 0.762 0.831 0.859 C1.136 1.140 1.599 0.896 1.538 0.493 C1.514 0.347 1.526 0.298 1.587 0.298 C1.673 0.298 1.978 0.579 2.075 0.750 C2.124 0.835 2.161 0.847 2.222 0.798 C2.270 0.750 2.270 0.689 2.197 0.542 C1.965 0.091 1.233 -0.129 0.623 0.079 Z" fill="#62560E" transform="translate(12.189 12.014)"/><path d="M0.000 0.039 C0.000 0.198 0.390 0.417 0.671 0.417 C0.927 0.417 1.257 0.295 1.330 0.173 C1.415 0.003 1.354 -0.034 1.208 0.112 C1.147 0.173 0.988 0.247 0.866 0.271 C0.610 0.320 0.207 0.210 0.146 0.088 C0.122 0.003 0.000 -0.034 0.000 0.039 Z" fill="#62560E" transform="translate(10.568 14.408)"/><path d="M0.000 0.089 C0.000 0.198 0.183 0.381 0.427 0.516 C0.573 0.589 0.756 0.625 1.110 0.625 C1.513 0.625 1.635 0.601 1.854 0.479 C2.001 0.394 2.159 0.272 2.208 0.198 C2.281 0.076 2.281 0.064 2.196 0.028 C2.135 0.003 2.037 0.040 1.964 0.113 C1.537 0.516 0.586 0.516 0.244 0.113 C0.146 -0.033 0.000 -0.033 0.000 0.089 Z" fill="#62560E" transform="translate(10.141 16.213)"/><path d="M0.495 0.084 C-0.005 0.218 -0.140 0.401 0.153 0.536 C0.263 0.584 0.348 0.572 0.580 0.475 C1.068 0.255 1.788 0.328 2.130 0.633 C2.227 0.719 2.239 0.719 2.239 0.609 C2.239 0.548 2.142 0.414 2.020 0.304 C1.629 -0.013 1.129 -0.074 0.495 0.084 Z" fill="#62560E" transform="translate(18.967 7.567)"/><path d="M0.575 0.077 C0.294 0.174 0.185 0.272 0.075 0.479 C-0.023 0.687 -0.023 0.711 0.063 0.711 C0.111 0.711 0.172 0.650 0.221 0.577 C0.282 0.455 0.575 0.235 0.673 0.235 C0.697 0.235 0.685 0.284 0.648 0.345 C0.612 0.418 0.612 0.516 0.648 0.613 C0.819 1.065 1.441 0.882 1.344 0.406 C1.295 0.162 1.405 0.186 1.673 0.467 C1.929 0.735 1.966 0.760 1.966 0.589 C1.966 0.430 1.600 0.125 1.319 0.052 C1.039 -0.021 0.856 -0.021 0.575 0.077 Z" fill="#62560E" transform="translate(18.924 8.465)"/><path d="M0.806 0.129 C0.721 0.239 0.647 0.263 0.342 0.251 C0.135 0.251 -0.011 0.263 0.001 0.300 C0.050 0.373 0.599 0.361 0.769 0.275 C0.855 0.239 0.916 0.165 0.916 0.092 C0.928 -0.042 0.928 -0.030 0.806 0.129 Z" fill="#62560E" transform="translate(17.741 10.573)"/><path d="M0.944 0.100 C0.834 0.234 0.517 0.356 0.260 0.356 C0.041 0.356 -0.093 0.514 0.077 0.575 C0.358 0.673 1.188 0.307 1.188 0.075 C1.188 -0.035 1.041 -0.022 0.944 0.100 Z" fill="#62560E" transform="translate(17.908 12.188)"/><path d="M5.807 0.175 C5.685 1.066 5.624 1.359 5.502 1.713 C5.332 2.213 5.112 2.689 4.868 3.055 C4.722 3.287 4.648 3.348 4.514 3.348 C4.099 3.348 3.258 2.994 2.733 2.591 L2.440 2.372 L2.013 2.494 C1.476 2.652 1.330 2.652 0.793 2.494 L0.366 2.359 L0.183 2.506 C0.085 2.579 0.000 2.664 0.000 2.677 C0.000 2.689 0.232 2.799 0.525 2.908 C1.293 3.213 2.648 3.897 3.233 4.275 C4.514 5.129 5.600 6.593 6.186 8.240 C6.332 8.655 6.405 8.789 6.491 8.789 C6.771 8.789 8.528 8.521 9.309 8.374 C10.322 8.167 11.603 7.776 11.895 7.581 L12.103 7.447 L12.091 6.910 C12.042 5.153 11.127 2.994 9.992 1.957 C9.614 1.603 9.163 1.383 7.271 0.578 C6.564 0.273 5.954 0.017 5.905 0.005 C5.856 -0.020 5.820 0.053 5.807 0.175 Z" fill="#62560E" transform="translate(16.692 14.003)"/><path d="M7.115 0.098 C4.773 1.001 4.028 1.355 3.199 1.891 C2.601 2.282 1.881 2.953 1.478 3.477 C0.722 4.466 0.149 6.137 0.014 7.662 C-0.034 8.333 0.002 8.382 0.759 8.663 C2.271 9.224 4.187 9.578 7.078 9.834 C8.616 9.968 13.593 9.980 15.070 9.858 C17.327 9.675 19.059 9.431 20.377 9.090 C21.219 8.882 22.073 8.589 22.292 8.431 L22.488 8.309 L22.475 7.699 C22.451 6.589 21.987 4.990 21.390 4.002 C20.853 3.099 19.852 2.172 18.693 1.513 C17.742 0.964 15.155 -0.061 15.106 0.073 C15.094 0.110 15.058 0.281 15.021 0.452 C14.777 1.574 14.045 3.892 13.545 5.124 C13.118 6.174 12.044 8.260 11.593 8.931 C11.263 9.419 11.129 9.297 10.299 7.772 C9.079 5.527 8.286 3.453 7.640 0.818 C7.530 0.366 7.420 -0.012 7.408 0.000 C7.359 0.000 7.249 0.037 7.115 0.098 Z" fill="#62560E" transform="translate(0.000 17.058)"/><path d="M0.002 0.095 C-0.022 0.168 0.161 1.254 0.258 1.595 C0.283 1.693 0.368 1.693 1.051 1.681 L1.808 1.669 L1.954 0.937 C2.040 0.534 2.088 0.168 2.064 0.107 C2.015 -0.027 0.051 -0.039 0.002 0.095 Z" fill="#62560E" transform="translate(10.224 19.501)"/><path d="M0.329 0.126 C0.305 0.199 0.220 0.553 0.134 0.919 L0.000 1.578 L0.439 2.432 C0.683 2.895 0.927 3.347 0.988 3.420 L1.086 3.566 L1.293 3.212 C1.415 3.017 1.659 2.578 1.842 2.224 L2.172 1.590 L2.001 0.858 C1.915 0.455 1.818 0.101 1.793 0.065 C1.769 0.028 1.488 0.004 1.061 0.004 C0.415 -0.008 0.378 0.004 0.329 0.126 Z" fill="#62560E" transform="translate(10.177 21.617)"/></svg>