<svg xmlns="http://www.w3.org/2000/svg" viewBox="0 0 27 27" fill="none"><path d="M1.100 0.069 C0.584 0.252 0.172 0.687 0.046 1.180 C0.011 1.317 0.000 5.098 0.000 11.822 L0.011 22.258 L0.137 22.498 C0.309 22.819 0.630 23.128 0.951 23.277 C1.203 23.392 1.260 23.392 6.003 23.414 L10.791 23.426 L10.791 22.945 L10.791 22.464 L6.003 22.452 L1.226 22.441 L1.100 22.315 L0.974 22.189 L0.974 14.479 L0.974 6.759 L11.696 6.759 L22.418 6.759 L22.429 8.328 L22.441 9.897 L22.922 9.897 L23.403 9.897 L23.403 5.602 C23.403 0.813 23.414 1.031 23.014 0.550 C22.899 0.412 22.670 0.229 22.521 0.149 L22.246 0.011 L11.776 0.000 C3.081 0.000 1.283 0.011 1.100 0.069 Z M22.189 1.020 C22.269 1.054 22.361 1.146 22.395 1.226 C22.429 1.317 22.452 2.073 22.452 3.563 L22.452 5.773 L11.696 5.773 L0.951 5.773 L0.962 3.505 L0.974 1.237 L1.134 1.100 L1.294 0.962 L11.673 0.962 C19.165 0.951 22.097 0.974 22.189 1.020 Z" fill="#62560E"/><path d="M0.000 0.481 L0.000 0.962 L2.154 0.962 L4.307 0.962 L4.307 0.481 L4.307 0.000 L2.154 0.000 L0.000 0.000 L0.000 0.481 Z" fill="#62560E" transform="translate(4.857 2.875)"/><path d="M0.000 0.481 L0.000 0.962 L2.176 0.962 L4.353 0.962 L4.353 0.481 L4.353 0.000 L2.176 0.000 L0.000 0.000 L0.000 0.481 Z" fill="#62560E" transform="translate(12.784 2.875)"/><path d="M0.000 1.088 L0.000 2.199 L0.470 2.188 L0.939 2.176 L0.951 1.088 L0.962 0.000 L0.481 0.000 L0.000 0.000 L0.000 1.088 Z" fill="#62560E" transform="translate(8.706 9.176)"/><path d="M7.076 0.053 C5.117 0.305 3.193 1.359 1.933 2.871 C0.970 4.028 0.398 5.219 0.100 6.697 C-0.049 7.441 -0.026 8.828 0.134 9.595 C0.661 12.115 2.322 14.234 4.625 15.357 C5.701 15.884 6.824 16.136 8.061 16.136 C9.310 16.136 10.421 15.884 11.498 15.357 C14.190 14.051 15.954 11.416 16.126 8.472 C16.320 5.219 14.281 1.989 11.200 0.649 C9.940 0.099 8.428 -0.108 7.076 0.053 Z M9.505 1.095 C10.879 1.382 12.013 1.977 12.987 2.917 C13.640 3.547 13.984 3.993 14.362 4.750 C14.934 5.872 15.152 6.800 15.152 8.117 C15.152 10.019 14.510 11.657 13.227 13.020 C10.478 15.930 5.598 15.907 2.861 12.986 C0.524 10.489 0.306 6.548 2.334 3.822 C3.479 2.298 5.186 1.290 7.087 1.027 C7.626 0.935 8.966 0.981 9.505 1.095 Z" fill="#62560E" transform="translate(10.886 10.864)"/><path d="M0.000 2.807 L0.000 5.613 L2.807 5.613 L5.613 5.613 L5.613 5.132 L5.613 4.651 L3.288 4.651 L0.962 4.651 L0.962 2.325 L0.962 0.000 L0.481 0.000 L0.000 0.000 L0.000 2.807 Z" fill="#62560E" transform="translate(18.099 14.193)"/><path d="M0.011 0.080 C-0.000 0.115 0.000 0.607 0.000 1.168 L0.011 2.188 L0.481 2.199 L0.951 2.211 L0.951 1.100 L0.951 0.000 L0.493 0.000 C0.183 0.011 0.034 0.034 0.011 0.080 Z" fill="#62560E" transform="translate(2.887 12.040)"/><path d="M0.000 1.088 L0.000 2.199 L0.470 2.188 L0.939 2.176 L0.939 1.100 L0.939 0.023 L0.470 0.011 L0.000 0.000 L0.000 1.088 Z" fill="#62560E" transform="translate(5.819 12.062)"/><path d="M0.000 1.100 L0.000 2.199 L0.481 2.199 L0.962 2.199 L0.962 1.100 L0.962 0.000 L0.481 0.000 L0.000 0.000 L0.000 1.100 Z" fill="#62560E" transform="translate(8.706 12.051)"/><path d="M0.034 0.034 C0.011 0.046 0.000 0.550 0.000 1.134 L0.000 2.199 L0.481 2.199 L0.962 2.199 L0.962 1.100 L0.962 0.000 L0.515 0.000 C0.263 -0.000 0.046 0.011 0.034 0.034 Z" fill="#62560E" transform="translate(2.887 14.938)"/><path d="M0.000 1.100 L0.000 2.199 L0.481 2.199 L0.962 2.199 L0.951 1.111 L0.939 0.023 L0.470 0.011 L0.000 0.000 L0.000 1.100 Z" fill="#62560E" transform="translate(5.819 14.938)"/><path d="M0.000 1.100 L0.000 2.199 L0.481 2.199 L0.962 2.199 L0.951 1.111 L0.939 0.023 L0.470 0.011 L0.000 0.000 L0.000 1.100 Z" fill="#62560E" transform="translate(8.706 14.938)"/><path d="M0.000 1.077 L0.000 2.154 L0.481 2.154 L0.962 2.154 L0.962 1.077 L0.962 0.000 L0.481 0.000 L0.000 0.000 L0.000 1.077 Z" fill="#62560E" transform="translate(2.875 17.870)"/><path d="M0.000 1.077 L0.000 2.154 L0.481 2.154 L0.962 2.154 L0.962 1.077 L0.962 0.000 L0.481 0.000 L0.000 0.000 L0.000 1.077 Z" fill="#62560E" transform="translate(5.819 17.870)"/><path d="M0.000 1.077 L0.000 2.154 L0.481 2.154 L0.962 2.154 L0.962 1.077 L0.962 0.000 L0.481 0.000 L0.000 0.000 L0.000 1.077 Z" fill="#62560E" transform="translate(8.706 17.870)"/></svg>