<svg width="23" height="23" viewBox="0 0 23 23" fill="none" xmlns="http://www.w3.org/2000/svg">
<path d="M17.5422 0.804473C16.8345 1.51202 16.757 1.60895 16.757 1.78341C16.757 1.96757 16.9024 2.13234 18.7733 4.00298C19.8784 5.10792 20.8575 6.05778 20.9447 6.10624C21.032 6.1547 21.158 6.17409 21.2355 6.1547C21.3034 6.13532 21.7008 5.7767 22.1177 5.36962C22.8059 4.68145 22.8738 4.59422 22.8738 4.41006C22.8738 4.22591 22.7381 4.08052 20.7702 2.10326C18.9672 0.300466 18.6473 0 18.5019 0C18.3564 0.00969245 18.1917 0.145387 17.5422 0.804473ZM21.4682 4.75899L21.158 5.06915L19.5197 3.43113L17.8718 1.78341L18.182 1.47325L18.4922 1.16309L20.1304 2.80112L21.7784 4.44883L21.4682 4.75899Z" fill="#0087FC"/>
<path d="M15.8398 2.6846C15.7913 2.70399 12.2046 6.26112 7.88111 10.5839L0 18.4542V20.5866V22.7189L0.145408 22.8546L0.281122 23H2.38469H4.48826L12.3888 15.0909C19.8336 7.65683 20.299 7.17221 20.299 6.99774C20.299 6.82328 20.1535 6.64881 18.3117 4.79756C17.2163 3.70231 16.2566 2.77184 16.1694 2.72337C16.0046 2.63614 15.9755 2.62645 15.8398 2.6846ZM17.5653 5.36941C18.4377 6.24173 19.1551 6.97836 19.1551 7.01713C19.1551 7.0559 15.7719 10.4579 11.6423 14.5869L4.13928 22.0889H2.5301H0.911223V20.4509V18.8031L8.41428 11.3012C12.5439 7.17221 15.9367 3.78954 15.9561 3.78954C15.9755 3.78954 16.7025 4.49709 17.5653 5.36941Z" fill="#0087FC"/>
<path d="M9.51038 11.5146C5.8461 15.1783 3.24814 17.8244 3.22875 17.9019C3.1512 18.212 3.52926 18.5513 3.83947 18.4253C3.92671 18.3865 6.7864 15.5563 10.2083 12.1446C16.1313 6.22249 16.4221 5.91233 16.4221 5.71848C16.4221 5.45679 16.2379 5.26294 15.9568 5.26294C15.7726 5.27263 15.3655 5.66033 9.51038 11.5146Z" fill="#0087FC"/>
<path d="M17.0136 6.63945C16.9263 6.69761 14.0666 9.51811 10.6835 12.9202C5.00288 18.5999 4.51819 19.1039 4.51819 19.2687C4.51819 19.5207 4.73145 19.7339 4.98349 19.7339C5.15798 19.7339 5.66207 19.2396 11.4202 13.492C16.461 8.45194 17.6728 7.2113 17.7018 7.05623C17.7309 6.90115 17.7115 6.84299 17.5661 6.69761C17.3723 6.50376 17.2559 6.49406 17.0136 6.63945Z" fill="#0087FC"/>
</svg>
