<svg xmlns="http://www.w3.org/2000/svg" viewBox="0 0 27 27" fill="none"><path d="M6.291 23.579 L4.748 25.122 C4.520 25.374 4.520 25.751 4.748 26.014 C5.000 26.265 5.400 26.265 5.640 26.014 L7.183 24.471 C7.434 24.219 7.434 23.842 7.183 23.579 C6.931 23.350 6.543 23.350 6.291 23.579 Z M17.949 5.109 C15.824 5.109 14.086 6.858 14.086 8.984 C14.086 11.109 15.812 12.847 17.949 12.847 C20.087 12.847 21.813 11.098 21.813 8.984 C21.813 6.858 20.075 5.109 17.949 5.109 Z M17.949 11.601 C16.521 11.601 15.332 10.424 15.332 8.984 C15.332 7.555 16.486 6.366 17.949 6.366 C19.378 6.366 20.567 7.543 20.567 8.984 C20.567 10.424 19.401 11.601 17.949 11.601 Z M1.800 22.185 L3.343 20.642 C3.594 20.390 3.594 20.013 3.343 19.750 C3.114 19.499 2.714 19.499 2.451 19.750 L0.908 21.316 C0.679 21.545 0.679 21.945 0.908 22.185 C1.171 22.413 1.571 22.413 1.800 22.185 Z M21.858 18.161 C24.099 15.910 25.596 13.213 26.373 10.367 C27.173 7.418 27.173 4.297 26.396 1.372 L26.396 1.326 L26.373 1.326 C26.293 0.983 26.019 0.697 25.630 0.583 C22.681 -0.194 19.561 -0.194 16.612 0.583 C13.743 1.360 11.046 2.857 8.817 5.098 L8.600 5.315 C7.571 5.040 6.474 5.018 5.400 5.246 C4.154 5.498 2.977 6.115 2.005 7.075 C0.954 8.126 0.314 9.452 0.085 10.824 C-0.132 12.218 0.062 13.670 0.714 14.973 C0.759 15.053 0.817 15.167 0.908 15.247 C1.285 15.670 1.960 15.693 2.360 15.316 C2.783 14.916 3.263 14.595 3.777 14.413 L4.005 14.333 C3.960 14.607 3.903 14.904 3.880 15.201 C3.777 15.978 3.708 16.779 3.731 17.579 C3.708 17.876 3.800 18.173 4.028 18.379 L8.646 22.996 C8.817 23.190 9.069 23.316 9.366 23.316 C10.189 23.339 11.012 23.270 11.835 23.168 C12.109 23.145 12.406 23.088 12.680 23.042 L12.600 23.259 C12.383 23.762 12.098 24.253 11.698 24.653 C11.629 24.733 11.572 24.802 11.526 24.882 C11.275 25.385 11.480 26.025 11.995 26.276 C13.275 26.928 14.761 27.145 16.166 26.905 C17.515 26.688 18.795 26.059 19.858 25.053 L19.927 25.008 C20.875 24.036 21.504 22.859 21.755 21.590 C21.984 20.539 21.950 19.442 21.687 18.390 L21.836 18.242 L21.858 18.161 Z M20.395 16.687 L20.098 16.984 L19.755 17.304 C19.412 17.601 19.332 18.047 19.481 18.424 C19.801 19.293 19.881 20.253 19.698 21.122 C19.504 21.990 19.070 22.813 18.418 23.488 L18.372 23.533 C17.652 24.253 16.727 24.676 15.801 24.813 C15.229 24.893 14.658 24.893 14.098 24.768 C14.223 24.516 14.372 24.242 14.475 23.991 C14.795 23.248 14.955 22.448 15.001 21.647 C15.001 21.076 14.578 20.596 14.006 20.573 C13.881 20.573 13.789 20.596 13.686 20.619 C12.966 20.813 12.269 20.962 11.538 21.065 C10.943 21.145 10.360 21.190 9.766 21.190 L5.754 17.167 C5.777 16.573 5.823 15.990 5.880 15.396 C5.983 14.675 6.131 13.967 6.326 13.247 C6.474 12.698 6.154 12.127 5.606 11.978 C5.480 11.978 5.377 11.955 5.263 11.978 C4.463 12.001 3.685 12.172 2.943 12.481 C2.668 12.584 2.417 12.710 2.142 12.881 C2.017 12.310 2.017 11.727 2.120 11.155 C2.268 10.207 2.725 9.304 3.468 8.538 C4.143 7.886 4.966 7.441 5.834 7.269 C6.737 7.075 7.686 7.121 8.554 7.463 C8.977 7.635 9.446 7.486 9.709 7.166 L9.983 6.846 L10.280 6.549 C12.223 4.595 14.601 3.257 17.115 2.583 C19.515 1.954 22.064 1.886 24.510 2.434 C25.059 4.880 24.990 7.383 24.339 9.818 C23.687 12.321 22.384 14.698 20.395 16.687 Z M5.263 21.682 C5.034 21.430 4.634 21.430 4.371 21.682 L0.874 25.179 C0.645 25.408 0.645 25.808 0.874 26.048 C1.125 26.299 1.525 26.299 1.765 26.048 L5.263 22.550 C5.514 22.288 5.514 21.910 5.263 21.682 Z" fill="#62560E"/></svg>