<svg width="23" height="30" viewBox="0 0 23 30" fill="none" xmlns="http://www.w3.org/2000/svg">
<path d="M10.5776 1.11864V2.23729H11.048H11.5183V1.11864V0H11.048H10.5776V1.11864Z" fill="#FFDD00"/>
<path d="M4.78198 2.09728C4.57859 2.21169 4.41333 2.3261 4.41333 2.35152C4.41333 2.4405 5.25233 3.86423 5.30318 3.86423C5.36674 3.86423 6.0532 3.45745 6.0532 3.41932C6.0532 3.38118 5.22691 1.93203 5.17606 1.90661C5.17606 1.89389 4.99809 1.98288 4.78198 2.09728Z" fill="#FFDD00"/>
<path d="M16.793 2.05945C16.4625 2.60606 16.0176 3.3942 16.0176 3.41962C16.0176 3.45776 16.704 3.86454 16.7676 3.86454C16.8312 3.86454 17.6702 2.40267 17.6447 2.33911C17.632 2.30098 17.4668 2.18657 17.2634 2.07216L16.9074 1.86877L16.793 2.05945Z" fill="#FFDD00"/>
<path d="M9.9933 3.8134C7.05678 4.22018 4.64147 5.97442 3.34483 8.6312C2.76007 9.80069 2.53125 10.9066 2.53125 12.3304C2.53125 15.0761 3.37025 16.7159 6.51016 20.1863C7.3873 21.1524 7.8068 21.7244 8.04833 22.2329C8.23902 22.6524 8.41699 23.3897 8.41699 23.7583V23.9617L11.0738 23.949L13.718 23.9363L13.7561 23.5549C13.8705 22.3727 14.201 21.7626 15.5231 20.288C18.2308 17.2626 18.9935 16.0041 19.4384 13.9448C19.6037 13.1312 19.6291 11.6058 19.4766 10.8049C19.1334 9.02527 18.3325 7.49985 17.0867 6.26679C15.879 5.05917 14.4171 4.27103 12.7646 3.92781C12.1035 3.78798 10.6035 3.72442 9.9933 3.8134ZM11.0484 5.4151V5.97442H10.7306C10.5526 5.97442 10.2094 6.01256 9.95516 6.06341C8.15003 6.40663 6.61186 7.51256 5.76014 9.06341C5.6076 9.35578 5.45505 9.62273 5.41691 9.63544C5.36606 9.66086 5.3025 9.63544 4.69232 9.3812L4.41265 9.25408L4.62876 8.83459C5.41691 7.27103 6.68813 6.08883 8.31529 5.4151C9.06531 5.11001 9.51023 5.00832 10.9721 4.86849C11.023 4.86849 11.0484 5.00832 11.0484 5.4151ZM4.97199 12.5592C4.9847 12.8643 5.0864 13.3219 5.21352 13.7414C5.32793 14.1227 5.41691 14.4278 5.4042 14.4278C5.25166 14.5295 4.47621 14.8092 4.42536 14.7965C4.3618 14.7583 4.12027 14.0337 4.044 13.6651C4.03129 13.5634 3.96773 13.1566 3.92959 12.7753L3.85332 12.0761H4.38723H4.92114L4.97199 12.5592ZM11.4043 13.2329C11.9128 13.6143 12.2306 13.6524 12.9679 13.4363C13.0951 13.3982 13.0951 13.4236 12.8917 13.8558C12.5739 14.5549 12.1417 15.9278 11.9637 16.7541C11.7222 17.9236 11.6459 18.7117 11.5696 20.6058L11.4933 22.3854H11.0484C10.667 22.3854 10.5908 22.3727 10.5653 22.2837C10.5526 22.2329 10.5272 21.7626 10.5018 21.2414C10.4128 18.7117 10.2857 17.4532 10.0314 16.2965C9.86618 15.5465 9.52295 14.5295 9.21785 13.8685C9.10345 13.627 9.02717 13.4236 9.0526 13.4236C9.06531 13.4236 9.23057 13.4617 9.40854 13.5126C9.62464 13.5761 9.81533 13.5888 9.96787 13.5761C10.2348 13.5253 10.7179 13.2837 10.8704 13.1312C10.9848 12.9659 11.0611 12.9787 11.4043 13.2329Z" fill="#FFDD00"/>
<path d="M0.191894 6.68651C0.0774841 6.8899 -0.0115011 7.06787 0.00121107 7.0933C0.0266354 7.13143 1.47582 7.97041 1.51396 7.97041C1.5521 7.97041 1.95889 7.29668 1.95889 7.22041C1.95889 7.16957 0.535123 6.31787 0.45885 6.31787C0.433425 6.33058 0.306303 6.49584 0.191894 6.68651Z" fill="#FFDD00"/>
<path d="M20.9122 6.71168C20.5562 6.92778 20.2384 7.11846 20.1876 7.14388C20.1113 7.19473 20.124 7.23286 20.2511 7.46168C20.5562 8.04642 20.48 8.03371 21.319 7.55066C21.7258 7.32185 22.069 7.10575 22.0817 7.09303C22.1198 7.02948 21.6876 6.33032 21.6113 6.33032C21.5859 6.33032 21.2808 6.50829 20.9122 6.71168Z" fill="#FFDD00"/>
<path d="M8.32818 25.3473C8.30275 25.36 8.29004 25.5761 8.29004 25.8177V26.2499H11.0486H13.8071L13.7944 25.7922L13.7817 25.3473L11.0867 25.3346C9.58668 25.3219 8.3536 25.3346 8.32818 25.3473Z" fill="#FFDD00"/>
<path d="M8.93701 27.6611V28.1315H11.0472H13.1575V27.6611V27.1908H11.0472H8.93701V27.6611Z" fill="#FFDD00"/>
<path d="M9.52295 29.5295V29.9999H11.0484H12.5739V29.5295V29.0592H11.0484H9.52295V29.5295Z" fill="#FFDD00"/>
</svg>
